<svg width="64" height="64" viewBox="0 0 64 64" fill="none" xmlns="http://www.w3.org/2000/svg">
<path d="M19.5126 2.2001C17.4001 2.7626 15.7501 4.4501 15.1876 6.5876C15.0251 7.2126 15.0001 10.5126 15.0001 32.0001C15.0001 59.2001 14.9501 57.3501 15.7626 58.8876C16.5376 60.3251 18.2251 61.5626 19.8626 61.8751C20.7751 62.0501 43.2251 62.0501 44.1376 61.8751C46.4376 61.4376 48.4501 59.4251 48.8751 57.1376C49.0501 56.2001 49.0501 7.7751 48.8751 6.8626C48.4501 4.6501 46.6626 2.7751 44.4376 2.1876C43.3626 1.9126 20.5501 1.9126 19.5126 2.2001ZM44.6251 4.3501C45.5251 4.7876 46.0501 5.2876 46.5126 6.1501L46.9376 6.9376L46.9751 28.4626L47.0001 50.0001H33.0001H19.0001V51.0001V52.0001H33.0126H47.0251L46.9751 54.5251C46.9376 56.9876 46.9251 57.0751 46.6001 57.7001C46.1001 58.6501 45.7251 59.0376 44.8501 59.5126L44.0626 59.9376H32.0001H19.9376L19.1501 59.5126C18.2876 59.0501 17.7876 58.5251 17.3501 57.6251L17.0626 57.0626L17.0251 34.5251L17.0001 12.0001H31.0001H45.0001V11.0001V10.0001H30.9876H16.9751L17.0251 8.4626C17.0751 7.1876 17.1251 6.8376 17.3876 6.3126C17.9001 5.2376 18.9251 4.3876 20.0626 4.1126C20.2751 4.0626 25.7501 4.0376 32.2501 4.0376L44.0626 4.0626L44.6251 4.3501Z" fill="#2D8ACA"/>
<path d="M29 7V8H32H35V7V6H32H29V7Z" fill="#2D8ACA"/>
<path d="M37 7V8H38H39V7V6H38H37V7Z" fill="#2D8ACA"/>
<path d="M30.9376 22.4501C29.5001 24.9626 28.3001 27.0626 28.2751 27.1126C28.2376 27.2376 29.7376 28.1501 29.9001 28.1001C30.0251 28.0501 35.1126 19.3251 35.2126 18.9751C35.2626 18.8251 35.0501 18.6501 34.4626 18.3251C34.0251 18.0751 33.6376 17.8751 33.6126 17.8751C33.5876 17.8751 32.3876 19.9376 30.9376 22.4501Z" fill="#2D8ACA"/>
<path d="M23.875 20.6875L21.5625 23L23.9125 25.3375L26.25 27.6875L26.9625 26.9625L27.6875 26.25L26.0625 24.625L24.4375 23L26.0375 21.4C26.9125 20.525 27.625 19.75 27.625 19.675C27.625 19.525 26.475 18.375 26.3125 18.375C26.2375 18.375 25.15 19.4125 23.875 20.6875Z" fill="#2D8ACA"/>
<path d="M36.9625 18.975C36.6375 19.3 36.375 19.625 36.375 19.6875C36.375 19.75 37.0875 20.525 37.9625 21.4L39.5625 23L37.9375 24.625L36.3125 26.25L37.0375 26.9625L37.75 27.6875L40.0875 25.3375L42.4375 23L40.125 20.6875C38.85 19.4125 37.75 18.375 37.6875 18.375C37.6125 18.375 37.2875 18.65 36.9625 18.975Z" fill="#2D8ACA"/>
<path d="M21 34V35H23H25V34V33H23H21V34Z" fill="#2D8ACA"/>
<path d="M27 34V35H35H43V34V33H35H27V34Z" fill="#2D8ACA"/>
<path d="M21 38V39H32H43V38V37H32H21V38Z" fill="#2D8ACA"/>
<path d="M21 42V43H32H43V42V41H32H21V42Z" fill="#2D8ACA"/>
<path d="M31.0003 53.1625C30.3878 53.3625 29.3378 54.4375 29.1503 55.075C28.8003 56.25 29.0503 57.1875 29.9378 58.0625C30.5753 58.7125 31.2128 59 32.0003 59C32.7878 59 33.4253 58.7125 34.0628 58.0625C35.2878 56.85 35.3253 55.2875 34.1628 54C33.3503 53.1 32.1878 52.7875 31.0003 53.1625ZM32.6878 55.3125C33.3128 55.925 32.8753 57 32.0003 57C31.7628 57 31.5003 56.8875 31.3128 56.6875C31.1128 56.5 31.0003 56.2375 31.0003 56C31.0003 55.7625 31.1128 55.5 31.3128 55.3125C31.5003 55.1125 31.7628 55 32.0003 55C32.2378 55 32.5003 55.1125 32.6878 55.3125Z" fill="#2D8ACA"/>
</svg>
