<svg width="64" height="64" viewBox="0 0 64 64" fill="none" xmlns="http://www.w3.org/2000/svg">
<path d="M5.825 2.13751C5.05 2.32501 3.9125 2.98751 3.3625 3.58751C3.0875 3.88751 2.675 4.51251 2.4625 4.97501L2.0625 5.81251V26.0125V46.2L2.525 47.15C3.0875 48.2875 3.8125 48.9875 4.975 49.5375L5.8125 49.9375L15.4125 49.975L25 50.0125V53V56H21.8C19.65 56 18.425 56.05 18.075 56.15C17.3875 56.35 16.35 57.3875 16.15 58.075C16.0625 58.3625 16 59.225 16 59.9875C16 61.3 16.0125 61.4 16.3125 61.6875L16.6125 62H32H47.3875L47.6875 61.6875C47.9875 61.4 48 61.3 48 59.9875C48 59.225 47.9375 58.3625 47.85 58.075C47.65 57.3875 46.6125 56.35 45.925 56.15C45.575 56.05 44.35 56 42.2 56H39V53V50L41.975 50.0125H44.9375L50.975 55.55C54.2875 58.6 57.2125 61.2 57.475 61.325C57.7875 61.4875 58.2125 61.5625 58.8125 61.5625C59.55 61.5625 59.7875 61.5 60.2875 61.2125C61.725 60.3625 62.2625 58.6125 61.5125 57.1625C61.3875 56.9 59.9125 55.2 58.2375 53.375L55.2 50.0625L56.725 49.9875C58.15 49.925 58.3 49.8875 59.1625 49.4625C60.2875 48.9125 61 48.175 61.5375 47.025L61.9375 46.1875V26V5.81251L61.5375 4.97501C60.9875 3.81251 60.2875 3.08751 59.15 2.52501L58.2 2.06251L32.2625 2.03751C16.875 2.03751 6.1125 2.07501 5.825 2.13751ZM57.925 4.15001C58.6125 4.35001 59.65 5.38751 59.85 6.07501C59.9625 6.47501 60 10.7625 60 24.3V42H53.95H47.8875L44.55 38.625C42.7125 36.7625 41.075 35.2125 40.925 35.175C40.7125 35.125 40.625 34.9625 40.5125 34.4125C40.3375 33.5125 39.7125 32.35 39.1125 31.8125C38.1875 30.975 36.225 30.1875 33.25 29.4375C30.0125 28.625 29.5625 28.6 29.1625 29.2C28.975 29.4875 28.975 29.625 29.1125 30.45C29.3375 31.7875 30.0375 34.5 30.5 35.8125C31.025 37.275 31.525 38.275 32.0625 38.8625C32.6 39.4625 33.775 40.0875 34.675 40.275C35.125 40.3625 35.375 40.475 35.375 40.5875C35.375 40.6875 35.6375 41.0375 35.95 41.375L36.5375 42H20.2625H4V24.3C4 10.7625 4.0375 6.47501 4.15 6.07501C4.3375 5.43751 5.3875 4.36251 6 4.16251C6.6625 3.95001 57.2125 3.95001 57.925 4.15001ZM32.9375 31.425C34.4 31.8 36.0625 32.35 36.9125 32.75C38.075 33.3 38.7375 34.4875 38.5875 35.75C38.5 36.4875 38.2625 36.9625 37.7375 37.4875C37.2 38.025 36.7125 38.2625 35.95 38.3375C34.4375 38.4875 33.3875 37.75 32.7375 36.0875C32.275 34.875 31.9875 33.9375 31.625 32.5C31.4875 31.9125 31.3375 31.3375 31.3 31.2125C31.2375 31.025 31.275 30.9875 31.4625 31.05C31.5875 31.0875 32.25 31.25 32.9375 31.425ZM43.4 43.15L42 44.5625L39.875 42.4375L37.75 40.3125L39.15 38.9125L40.5625 37.5L42.6875 39.625L44.8125 41.75L43.4 43.15ZM52.8125 50.375C56.3875 54.2875 59.4375 57.6625 59.6 57.8875C59.975 58.425 59.95 58.825 59.5125 59.2625C58.9625 59.8 58.5 59.75 57.775 59.0875C56.725 58.125 43.5625 46.0875 43.5125 46.0375C43.4375 45.9875 46.15 43.25 46.25 43.2625C46.2875 43.2625 49.2375 46.4625 52.8125 50.375ZM40.6125 46L42.65 48H24.625C10.825 48 6.475 47.9625 6.075 47.85C5.3875 47.65 4.35 46.6125 4.15 45.925C4.0625 45.6375 4 45.0875 4 44.7V44H21.2875L38.5625 44.0125L40.6125 46ZM60 44.7C60 45.7875 59.775 46.3625 59.0625 47.0625C58.225 47.9125 57.85 48 55.3625 48H53.3125L51.625 46.1625C50.7 45.1625 49.8875 44.2625 49.8375 44.1625C49.75 44.025 50.6375 44 54.875 44H60V44.7ZM37 53V56H32H27V53V50H32H37V53ZM45.6875 58.3125C45.95 58.5625 46 58.7375 46 59.3125V60H32H18V59.3125C18 58.7375 18.05 58.5625 18.3125 58.3125L18.6125 58H32H45.3875L45.6875 58.3125Z" fill="#2D8ACA"/>
<path d="M6.3125 8.3125C6.1125 8.5 6 8.7625 6 9C6 9.2375 6.1125 9.5 6.3125 9.6875C6.575 9.9625 6.725 10 7.5 10C8.275 10 8.425 9.9625 8.6875 9.6875C9.1 9.2875 9.1 8.7125 8.6875 8.3125C8.425 8.0375 8.275 8 7.5 8C6.725 8 6.575 8.0375 6.3125 8.3125Z" fill="#2D8ACA"/>
<path d="M10.3125 8.3125C10.1125 8.5 10 8.7625 10 9C10 9.2375 10.1125 9.5 10.3125 9.6875C10.575 9.9625 10.725 10 11.5 10C12.275 10 12.425 9.9625 12.6875 9.6875C13.1 9.2875 13.1 8.7125 12.6875 8.3125C12.425 8.0375 12.275 8 11.5 8C10.725 8 10.575 8.0375 10.3125 8.3125Z" fill="#2D8ACA"/>
<path d="M14.3125 8.3125C14.1125 8.5 14 8.7625 14 9C14 9.2375 14.1125 9.5 14.3125 9.6875C14.575 9.9625 14.725 10 15.5 10C16.275 10 16.425 9.9625 16.6875 9.6875C16.8875 9.5 17 9.2375 17 9C17 8.7625 16.8875 8.5 16.6875 8.3125C16.425 8.0375 16.275 8 15.5 8C14.725 8 14.575 8.0375 14.3125 8.3125Z" fill="#2D8ACA"/>
<path d="M18.3125 8.3125C18.1125 8.5 18 8.7625 18 9C18 9.2375 18.1125 9.5 18.3125 9.6875C18.575 9.9625 18.725 10 19.5 10C20.275 10 20.425 9.9625 20.6875 9.6875C20.8875 9.5 21 9.2375 21 9C21 8.7625 20.8875 8.5 20.6875 8.3125C20.425 8.0375 20.275 8 19.5 8C18.725 8 18.575 8.0375 18.3125 8.3125Z" fill="#2D8ACA"/>
<path d="M22.3125 8.3125C22.1125 8.5 22 8.7625 22 9C22 9.2375 22.1125 9.5 22.3125 9.6875C22.575 9.9625 22.725 10 23.5 10C24.275 10 24.425 9.9625 24.6875 9.6875C24.8875 9.5 25 9.2375 25 9C25 8.7625 24.8875 8.5 24.6875 8.3125C24.425 8.0375 24.275 8 23.5 8C22.725 8 22.575 8.0375 22.3125 8.3125Z" fill="#2D8ACA"/>
<path d="M26.3125 8.3125C26.1125 8.5 26 8.7625 26 9C26 9.2375 26.1125 9.5 26.3125 9.6875C26.575 9.9625 26.725 10 27.5 10C28.275 10 28.425 9.9625 28.6875 9.6875C28.8875 9.5 29 9.2375 29 9C29 8.7625 28.8875 8.5 28.6875 8.3125C28.425 8.0375 28.275 8 27.5 8C26.725 8 26.575 8.0375 26.3125 8.3125Z" fill="#2D8ACA"/>
<path d="M30.3125 8.3125C30.0375 8.575 30 8.725 30 9.5C30 10.275 30.0375 10.425 30.3125 10.6875C30.5 10.8875 30.7625 11 31 11C31.2375 11 31.5 10.8875 31.6875 10.6875C31.9625 10.425 32 10.275 32 9.5C32 8.725 31.9625 8.575 31.6875 8.3125C31.5 8.1125 31.2375 8 31 8C30.7625 8 30.5 8.1125 30.3125 8.3125Z" fill="#2D8ACA"/>
<path d="M36.3125 8.3125L36 8.6125V12V15.3875L36.3125 15.6875L36.6125 16H47H57.3875L57.6875 15.6875L58 15.3875V12V8.6125L57.6875 8.3125L57.3875 8H47H36.6125L36.3125 8.3125ZM56 12V14H47H38V12V10H47H56V12Z" fill="#2D8ACA"/>
<path d="M6.3125 11.3125C6.0375 11.575 6 11.725 6 12.5C6 13.275 6.0375 13.425 6.3125 13.6875C6.5 13.8875 6.7625 14 7 14C7.2375 14 7.5 13.8875 7.6875 13.6875C7.9625 13.425 8 13.275 8 12.5C8 11.725 7.9625 11.575 7.6875 11.3125C7.5 11.1125 7.2375 11 7 11C6.7625 11 6.5 11.1125 6.3125 11.3125Z" fill="#2D8ACA"/>
<path d="M10.3125 12.3125L10 12.6125V21V29.3875L10.3125 29.6875L10.6125 30H19H27.3875L27.6875 29.6875L28 29.3875V21V12.6125L27.6875 12.3125L27.3875 12H19H10.6125L10.3125 12.3125ZM26 21V28H19H12V21V14H19H26V21Z" fill="#2D8ACA"/>
<path d="M30.3125 12.3125C30.0375 12.575 30 12.725 30 13.5C30 14.275 30.0375 14.425 30.3125 14.6875C30.5 14.8875 30.7625 15 31 15C31.2375 15 31.5 14.8875 31.6875 14.6875C31.9625 14.425 32 14.275 32 13.5C32 12.725 31.9625 12.575 31.6875 12.3125C31.5 12.1125 31.2375 12 31 12C30.7625 12 30.5 12.1125 30.3125 12.3125Z" fill="#2D8ACA"/>
<path d="M6.3125 15.3125C6.0375 15.575 6 15.725 6 16.5C6 17.275 6.0375 17.425 6.3125 17.6875C6.5 17.8875 6.7625 18 7 18C7.2375 18 7.5 17.8875 7.6875 17.6875C7.9625 17.425 8 17.275 8 16.5C8 15.725 7.9625 15.575 7.6875 15.3125C7.5 15.1125 7.2375 15 7 15C6.7625 15 6.5 15.1125 6.3125 15.3125Z" fill="#2D8ACA"/>
<path d="M30.3125 16.3125C30.0375 16.575 30 16.725 30 17.5C30 18.275 30.0375 18.425 30.3125 18.6875C30.5 18.8875 30.7625 19 31 19C31.2375 19 31.5 18.8875 31.6875 18.6875C31.9625 18.425 32 18.275 32 17.5C32 16.725 31.9625 16.575 31.6875 16.3125C31.5 16.1125 31.2375 16 31 16C30.7625 16 30.5 16.1125 30.3125 16.3125Z" fill="#2D8ACA"/>
<path d="M36.3125 18.3125L36 18.6125V22V25.3875L36.3125 25.6875L36.6125 26H47H57.3875L57.6875 25.6875L58 25.3875V22V18.6125L57.6875 18.3125L57.3875 18H47H36.6125L36.3125 18.3125ZM56 22V24H47H38V22V20H47H56V22Z" fill="#2D8ACA"/>
<path d="M6.3125 19.3125C6.0375 19.575 6 19.725 6 20.5C6 21.275 6.0375 21.425 6.3125 21.6875C6.5 21.8875 6.7625 22 7 22C7.2375 22 7.5 21.8875 7.6875 21.6875C7.9625 21.425 8 21.275 8 20.5C8 19.725 7.9625 19.575 7.6875 19.3125C7.5 19.1125 7.2375 19 7 19C6.7625 19 6.5 19.1125 6.3125 19.3125Z" fill="#2D8ACA"/>
<path d="M30.3125 20.3125C30.0375 20.575 30 20.725 30 21.5C30 22.275 30.0375 22.425 30.3125 22.6875C30.5 22.8875 30.7625 23 31 23C31.2375 23 31.5 22.8875 31.6875 22.6875C31.9625 22.425 32 22.275 32 21.5C32 20.725 31.9625 20.575 31.6875 20.3125C31.5 20.1125 31.2375 20 31 20C30.7625 20 30.5 20.1125 30.3125 20.3125Z" fill="#2D8ACA"/>
<path d="M6.3125 23.3125C6.0375 23.575 6 23.725 6 24.5C6 25.275 6.0375 25.425 6.3125 25.6875C6.5 25.8875 6.7625 26 7 26C7.2375 26 7.5 25.8875 7.6875 25.6875C7.9625 25.425 8 25.275 8 24.5C8 23.725 7.9625 23.575 7.6875 23.3125C7.5 23.1125 7.2375 23 7 23C6.7625 23 6.5 23.1125 6.3125 23.3125Z" fill="#2D8ACA"/>
<path d="M30.3125 24.3125C30.0375 24.575 30 24.725 30 25.5C30 26.275 30.0375 26.425 30.3125 26.6875C30.5 26.8875 30.7625 27 31 27C31.2375 27 31.5 26.8875 31.6875 26.6875C31.9625 26.425 32 26.275 32 25.5C32 24.725 31.9625 24.575 31.6875 24.3125C31.5 24.1125 31.2375 24 31 24C30.7625 24 30.5 24.1125 30.3125 24.3125Z" fill="#2D8ACA"/>
<path d="M6.3125 27.3125C6.0375 27.575 6 27.725 6 28.5C6 29.275 6.0375 29.425 6.3125 29.6875C6.5 29.8875 6.7625 30 7 30C7.2375 30 7.5 29.8875 7.6875 29.6875C7.9625 29.425 8 29.275 8 28.5C8 27.725 7.9625 27.575 7.6875 27.3125C7.5 27.1125 7.2375 27 7 27C6.7625 27 6.5 27.1125 6.3125 27.3125Z" fill="#2D8ACA"/>
<path d="M38.3125 28.3125C38.1125 28.5 38 28.7625 38 29C38 29.2375 38.1125 29.5 38.3125 29.6875L38.6125 30H47.3125H56V32V34H50.3125H44.6125L44.3125 34.3125C43.9 34.7125 43.9 35.2875 44.3125 35.6875L44.6125 36H51H57.3875L57.6875 35.6875L58 35.3875V32V28.6125L57.6875 28.3125L57.3875 28H48H38.6125L38.3125 28.3125Z" fill="#2D8ACA"/>
<path d="M6.3125 31.3125C6.0375 31.575 6 31.725 6 32.5C6 33.275 6.0375 33.425 6.3125 33.6875C6.5 33.8875 6.7625 34 7 34C7.2375 34 7.5 33.8875 7.6875 33.6875C7.9625 33.425 8 33.275 8 32.5C8 31.725 7.9625 31.575 7.6875 31.3125C7.5 31.1125 7.2375 31 7 31C6.7625 31 6.5 31.1125 6.3125 31.3125Z" fill="#2D8ACA"/>
<path d="M9.3125 32.3125C9.1125 32.5 9 32.7625 9 33C9 33.2375 9.1125 33.5 9.3125 33.6875C9.575 33.9625 9.725 34 10.5 34C11.275 34 11.425 33.9625 11.6875 33.6875C12.1 33.2875 12.1 32.7125 11.6875 32.3125C11.425 32.0375 11.275 32 10.5 32C9.725 32 9.575 32.0375 9.3125 32.3125Z" fill="#2D8ACA"/>
<path d="M13.3125 32.3125C13.1125 32.5 13 32.7625 13 33C13 33.2375 13.1125 33.5 13.3125 33.6875C13.575 33.9625 13.725 34 14.5 34C15.275 34 15.425 33.9625 15.6875 33.6875C16.1 33.2875 16.1 32.7125 15.6875 32.3125C15.425 32.0375 15.275 32 14.5 32C13.725 32 13.575 32.0375 13.3125 32.3125Z" fill="#2D8ACA"/>
<path d="M17.3125 32.3125C17.1125 32.5 17 32.7625 17 33C17 33.2375 17.1125 33.5 17.3125 33.6875C17.575 33.9625 17.725 34 18.5 34C19.275 34 19.425 33.9625 19.6875 33.6875C19.8875 33.5 20 33.2375 20 33C20 32.7625 19.8875 32.5 19.6875 32.3125C19.425 32.0375 19.275 32 18.5 32C17.725 32 17.575 32.0375 17.3125 32.3125Z" fill="#2D8ACA"/>
<path d="M21.3125 32.3125C21.1125 32.5 21 32.7625 21 33C21 33.2375 21.1125 33.5 21.3125 33.6875C21.575 33.9625 21.725 34 22.5 34C23.275 34 23.425 33.9625 23.6875 33.6875C23.8875 33.5 24 33.2375 24 33C24 32.7625 23.8875 32.5 23.6875 32.3125C23.425 32.0375 23.275 32 22.5 32C21.725 32 21.575 32.0375 21.3125 32.3125Z" fill="#2D8ACA"/>
<path d="M25.3125 32.3125C25.1125 32.5 25 32.7625 25 33C25 33.2375 25.1125 33.5 25.3125 33.6875C25.575 33.9625 25.725 34 26.5 34C27.275 34 27.425 33.9625 27.6875 33.6875C27.8875 33.5 28 33.2375 28 33C28 32.7625 27.8875 32.5 27.6875 32.3125C27.425 32.0375 27.275 32 26.5 32C25.725 32 25.575 32.0375 25.3125 32.3125Z" fill="#2D8ACA"/>
<path d="M30.3125 45.3125C30.1125 45.5 30 45.7625 30 46C30 46.2375 30.1125 46.5 30.3125 46.6875C30.6 46.9875 30.7 47 32 47C33.3 47 33.4 46.9875 33.6875 46.6875C33.8875 46.5 34 46.2375 34 46C34 45.7625 33.8875 45.5 33.6875 45.3125C33.4 45.0125 33.3 45 32 45C30.7 45 30.6 45.0125 30.3125 45.3125Z" fill="#2D8ACA"/>
</svg>
