<svg width="64" height="65" viewBox="0 0 64 65" fill="none" xmlns="http://www.w3.org/2000/svg">
<path d="M34.025 2.6625C33.4875 2.825 32.575 3.6375 32.375 4.1125L32.225 4.5L20.0125 4.525L7.8125 4.5625L6.975 4.9625C5.8125 5.5125 5.0875 6.2125 4.525 7.35L4.0625 8.3V27.5V46.7L4.525 47.65C5.0875 48.7875 5.8125 49.4875 6.975 50.0375L7.8125 50.4375L16.4125 50.475L25 50.5125V53.5V56.5H21.8C19.65 56.5 18.425 56.55 18.075 56.65C17.3875 56.85 16.35 57.8875 16.15 58.575C16.0625 58.8625 16 59.725 16 60.4875C16 61.8 16.0125 61.9 16.3125 62.1875L16.6125 62.5H32H47.3875L47.6875 62.1875C47.9875 61.9 48 61.8 48 60.4875C48 59.725 47.9375 58.8625 47.85 58.575C47.65 57.8875 46.6125 56.85 45.925 56.65C45.575 56.55 44.35 56.5 42.2 56.5H39V53.5V50.5125L47.6 50.475L56.1875 50.4375L57.025 50.0375C58.1875 49.4875 58.9125 48.7875 59.475 47.65L59.9375 46.7L59.975 40.4875C60.0125 34.3625 60.0125 34.2625 60.2625 34.1875C60.675 34.05 61.3625 33.375 61.6625 32.825C61.925 32.3375 61.9375 32.1375 61.975 28.75C62.025 25.025 61.975 24.5375 61.475 23.8375C61.2375 23.5 61.2375 23.5 61.475 23.15C61.95 22.4625 62 22.0625 62 18.5C62 14.9375 61.95 14.5375 61.475 13.8375C61.2375 13.5 61.2375 13.5 61.475 13.15C61.6 12.9625 61.775 12.625 61.85 12.3875C62.0625 11.7875 62.05 5.275 61.85 4.575C61.65 3.8875 60.6125 2.85 59.925 2.65C59.2375 2.45 34.65 2.45 34.025 2.6625ZM59.6875 4.8125L60 5.1125V8.5V11.8875L59.6875 12.1875L59.3875 12.5H47H34.6125L34.3125 12.1875L34 11.8875V8.5V5.1125L34.3125 4.8125L34.6125 4.5H47H59.3875L59.6875 4.8125ZM32 9.2375C32 12.0375 32.0625 12.4875 32.525 13.15C32.7625 13.5 32.7625 13.5 32.525 13.8375C32.05 14.5375 32 14.9375 32 18.5C32 22.0625 32.05 22.4625 32.525 23.15C32.7625 23.5 32.7625 23.5 32.525 23.8375C32.4 24.0375 32.225 24.375 32.15 24.6125C31.9375 25.2125 31.95 31.725 32.15 32.425C32.35 33.1125 33.3875 34.15 34.075 34.35C34.4625 34.4625 37.475 34.5 46.3 34.5H58V38.5V42.5H32H6V25.8C6 13.05 6.0375 8.975 6.15 8.575C6.3375 7.9375 7.3875 6.8625 8 6.6625C8.3 6.5625 12.0125 6.525 20.225 6.5125L32 6.5V9.2375ZM59.6875 14.8125L60 15.1125V18.5V21.8875L59.6875 22.1875L59.3875 22.5H47H34.6125L34.3125 22.1875L34 21.8875V18.5V15.1125L34.3125 14.8125L34.6125 14.5H47H59.3875L59.6875 14.8125ZM59.6875 24.8125L60 25.1125V28.5V31.8875L59.6875 32.1875L59.3875 32.5H47H34.6125L34.3125 32.1875L34 31.8875V28.5V25.1125L34.3125 24.8125L34.6125 24.5H47H59.3875L59.6875 24.8125ZM58 45.2C58 45.5875 57.9375 46.1375 57.85 46.425C57.65 47.1125 56.6125 48.15 55.925 48.35C55.175 48.575 8.825 48.575 8.075 48.35C7.3875 48.15 6.35 47.1125 6.15 46.425C6.0625 46.1375 6 45.5875 6 45.2V44.5H32H58V45.2ZM37 53.5V56.5H32H27V53.5V50.5H32H37V53.5ZM45.6875 58.8125C45.95 59.0625 46 59.2375 46 59.8125V60.5H32H18V59.8125C18 59.2375 18.05 59.0625 18.3125 58.8125L18.6125 58.5H32H45.3875L45.6875 58.8125Z" fill="#2D8ACA"/>
<path d="M36.3125 5.8125C36 6.1125 36 6.1375 36 8.5C36 10.8625 36 10.8875 36.3125 11.1875L36.6125 11.5H41H45.3875L45.6875 11.1875C46 10.8875 46 10.8625 46 8.5C46 6.1375 46 6.1125 45.6875 5.8125L45.3875 5.5H41H36.6125L36.3125 5.8125ZM44 8.5V9.5H41H38V8.5V7.5H41H44V8.5Z" fill="#2D8ACA"/>
<path d="M48.3125 6.8125C48.0125 7.1 48 7.2 48 8.5C48 9.8 48.0125 9.9 48.3125 10.1875C48.5 10.3875 48.7625 10.5 49 10.5C49.2375 10.5 49.5 10.3875 49.6875 10.1875C49.9875 9.9 50 9.8 50 8.5C50 7.2 49.9875 7.1 49.6875 6.8125C49.5 6.6125 49.2375 6.5 49 6.5C48.7625 6.5 48.5 6.6125 48.3125 6.8125Z" fill="#2D8ACA"/>
<path d="M52.3125 6.8125C52.0125 7.1 52 7.2 52 8.5C52 9.8 52.0125 9.9 52.3125 10.1875C52.5 10.3875 52.7625 10.5 53 10.5C53.2375 10.5 53.5 10.3875 53.6875 10.1875C53.9875 9.9 54 9.8 54 8.5C54 7.2 53.9875 7.1 53.6875 6.8125C53.5 6.6125 53.2375 6.5 53 6.5C52.7625 6.5 52.5 6.6125 52.3125 6.8125Z" fill="#2D8ACA"/>
<path d="M56.3125 6.8125C56.0125 7.1 56 7.2 56 8.5C56 9.8 56.0125 9.9 56.3125 10.1875C56.5 10.3875 56.7625 10.5 57 10.5C57.2375 10.5 57.5 10.3875 57.6875 10.1875C57.9875 9.9 58 9.8 58 8.5C58 7.2 57.9875 7.1 57.6875 6.8125C57.5 6.6125 57.2375 6.5 57 6.5C56.7625 6.5 56.5 6.6125 56.3125 6.8125Z" fill="#2D8ACA"/>
<path d="M18.475 7.62507C18.15 7.82507 14 15.1626 14 15.5501C14 16.2376 14.875 16.7126 15.5 16.3751C15.8375 16.2001 20 8.86257 20 8.45007C20 7.76257 19.0875 7.27507 18.475 7.62507Z" fill="#2D8ACA"/>
<path d="M9.91224 10.6875C8.06224 11.925 7.87474 12.125 8.04974 12.8125C8.16224 13.225 11.5247 15.5 12.0372 15.5C12.7247 15.5 13.2122 14.6375 12.8747 14.0125C12.8122 13.8875 12.3372 13.5125 11.8247 13.175C11.2997 12.8375 10.8747 12.5375 10.8747 12.5C10.8747 12.4625 11.2997 12.1625 11.8247 11.825C12.3372 11.4875 12.8122 11.1125 12.8747 10.9875C13.2122 10.3625 12.7247 9.5 12.0372 9.5C11.7997 9.5 11.0997 9.8875 9.91224 10.6875Z" fill="#2D8ACA"/>
<path d="M21.3126 9.8125C20.9876 10.125 20.9126 10.6 21.1251 10.9875C21.1876 11.1125 21.6626 11.4875 22.1751 11.825C22.7001 12.1625 23.1251 12.4625 23.1251 12.5C23.1251 12.5375 22.7001 12.8375 22.1751 13.175C21.6626 13.5125 21.1876 13.8875 21.1251 14.0125C20.7876 14.6375 21.2751 15.5 21.9626 15.5C22.4751 15.5 25.8376 13.225 25.9501 12.8125C26.1251 12.125 25.9376 11.925 24.0876 10.6875C22.1501 9.3875 21.8251 9.2875 21.3126 9.8125Z" fill="#2D8ACA"/>
<path d="M8.3125 18.8125C8.1125 19 8 19.2625 8 19.5C8 19.7375 8.1125 20 8.3125 20.1875C8.6 20.4875 8.7 20.5 10 20.5C11.3 20.5 11.4 20.4875 11.6875 20.1875C11.8875 20 12 19.7375 12 19.5C12 19.2625 11.8875 19 11.6875 18.8125C11.4 18.5125 11.3 18.5 10 18.5C8.7 18.5 8.6 18.5125 8.3125 18.8125Z" fill="#2D8ACA"/>
<path d="M14.3125 18.8125C14.1125 19 14 19.2625 14 19.5C14 19.7375 14.1125 20 14.3125 20.1875L14.6125 20.5H22H29.3875L29.6875 20.1875C30.1 19.7875 30.1 19.2125 29.6875 18.8125L29.3875 18.5H22H14.6125L14.3125 18.8125Z" fill="#2D8ACA"/>
<path d="M8.3125 22.8125C8.1125 23 8 23.2625 8 23.5C8 23.7375 8.1125 24 8.3125 24.1875L8.6125 24.5H16H23.3875L23.6875 24.1875C24.1 23.7875 24.1 23.2125 23.6875 22.8125L23.3875 22.5H16H8.6125L8.3125 22.8125Z" fill="#2D8ACA"/>
<path d="M8.3125 26.8125C8.1125 27 8 27.2625 8 27.5C8 27.7375 8.1125 28 8.3125 28.1875C8.6 28.4875 8.7 28.5 10 28.5C11.3 28.5 11.4 28.4875 11.6875 28.1875C11.8875 28 12 27.7375 12 27.5C12 27.2625 11.8875 27 11.6875 26.8125C11.4 26.5125 11.3 26.5 10 26.5C8.7 26.5 8.6 26.5125 8.3125 26.8125Z" fill="#2D8ACA"/>
<path d="M14.3125 26.8125C14.1125 27 14 27.2625 14 27.5C14 27.7375 14.1125 28 14.3125 28.1875L14.6125 28.5H22H29.3875L29.6875 28.1875C30.1 27.7875 30.1 27.2125 29.6875 26.8125L29.3875 26.5H22H14.6125L14.3125 26.8125Z" fill="#2D8ACA"/>
<path d="M8.3125 30.8125C8.1125 31 8 31.2625 8 31.5C8 31.7375 8.1125 32 8.3125 32.1875L8.6125 32.5H13H17.3875L17.6875 32.1875C17.8875 32 18 31.7375 18 31.5C18 31.2625 17.8875 31 17.6875 30.8125L17.3875 30.5H13H8.6125L8.3125 30.8125Z" fill="#2D8ACA"/>
<path d="M20.3125 30.8125C20.1125 31 20 31.2625 20 31.5C20 31.7375 20.1125 32 20.3125 32.1875C20.6 32.4875 20.7 32.5 22 32.5C23.3 32.5 23.4 32.4875 23.6875 32.1875C23.8875 32 24 31.7375 24 31.5C24 31.2625 23.8875 31 23.6875 30.8125C23.4 30.5125 23.3 30.5 22 30.5C20.7 30.5 20.6 30.5125 20.3125 30.8125Z" fill="#2D8ACA"/>
<path d="M8.3125 34.8125C8.1125 35 8 35.2625 8 35.5C8 35.7375 8.1125 36 8.3125 36.1875C8.6 36.4875 8.7 36.5 10 36.5C11.3 36.5 11.4 36.4875 11.6875 36.1875C11.8875 36 12 35.7375 12 35.5C12 35.2625 11.8875 35 11.6875 34.8125C11.4 34.5125 11.3 34.5 10 34.5C8.7 34.5 8.6 34.5125 8.3125 34.8125Z" fill="#2D8ACA"/>
<path d="M14.3125 34.8125C14.1125 35 14 35.2625 14 35.5C14 35.7375 14.1125 36 14.3125 36.1875L14.6125 36.5H22H29.3875L29.6875 36.1875C30.1 35.7875 30.1 35.2125 29.6875 34.8125L29.3875 34.5H22H14.6125L14.3125 34.8125Z" fill="#2D8ACA"/>
<path d="M8.3125 38.8125C8.1125 39 8 39.2625 8 39.5C8 39.7375 8.1125 40 8.3125 40.1875L8.6125 40.5H16H23.3875L23.6875 40.1875C24.1 39.7875 24.1 39.2125 23.6875 38.8125L23.3875 38.5H16H8.6125L8.3125 38.8125Z" fill="#2D8ACA"/>
<path d="M26.3125 38.8125C26.1125 39 26 39.2625 26 39.5C26 39.7375 26.1125 40 26.3125 40.1875C26.6 40.4875 26.7 40.5 28 40.5C29.3 40.5 29.4 40.4875 29.6875 40.1875C29.8875 40 30 39.7375 30 39.5C30 39.2625 29.8875 39 29.6875 38.8125C29.4 38.5125 29.3 38.5 28 38.5C26.7 38.5 26.6 38.5125 26.3125 38.8125Z" fill="#2D8ACA"/>
<path d="M36.3125 15.8125C36 16.1125 36 16.1375 36 18.5C36 20.8625 36 20.8875 36.3125 21.1875L36.6125 21.5H41H45.3875L45.6875 21.1875C46 20.8875 46 20.8625 46 18.5C46 16.1375 46 16.1125 45.6875 15.8125L45.3875 15.5H41H36.6125L36.3125 15.8125ZM44 18.5V19.5H41H38V18.5V17.5H41H44V18.5Z" fill="#2D8ACA"/>
<path d="M48.3125 16.8125C48.0125 17.1 48 17.2 48 18.5C48 19.8 48.0125 19.9 48.3125 20.1875C48.5 20.3875 48.7625 20.5 49 20.5C49.2375 20.5 49.5 20.3875 49.6875 20.1875C49.9875 19.9 50 19.8 50 18.5C50 17.2 49.9875 17.1 49.6875 16.8125C49.5 16.6125 49.2375 16.5 49 16.5C48.7625 16.5 48.5 16.6125 48.3125 16.8125Z" fill="#2D8ACA"/>
<path d="M52.3125 16.8125C52.0125 17.1 52 17.2 52 18.5C52 19.8 52.0125 19.9 52.3125 20.1875C52.5 20.3875 52.7625 20.5 53 20.5C53.2375 20.5 53.5 20.3875 53.6875 20.1875C53.9875 19.9 54 19.8 54 18.5C54 17.2 53.9875 17.1 53.6875 16.8125C53.5 16.6125 53.2375 16.5 53 16.5C52.7625 16.5 52.5 16.6125 52.3125 16.8125Z" fill="#2D8ACA"/>
<path d="M56.3125 16.8125C56.0125 17.1 56 17.2 56 18.5C56 19.8 56.0125 19.9 56.3125 20.1875C56.5 20.3875 56.7625 20.5 57 20.5C57.2375 20.5 57.5 20.3875 57.6875 20.1875C57.9875 19.9 58 19.8 58 18.5C58 17.2 57.9875 17.1 57.6875 16.8125C57.5 16.6125 57.2375 16.5 57 16.5C56.7625 16.5 56.5 16.6125 56.3125 16.8125Z" fill="#2D8ACA"/>
<path d="M36.3125 25.8125C36 26.1125 36 26.1375 36 28.5C36 30.8625 36 30.8875 36.3125 31.1875L36.6125 31.5H41H45.3875L45.6875 31.1875C46 30.8875 46 30.8625 46 28.5C46 26.1375 46 26.1125 45.6875 25.8125L45.3875 25.5H41H36.6125L36.3125 25.8125ZM44 28.5V29.5H41H38V28.5V27.5H41H44V28.5Z" fill="#2D8ACA"/>
<path d="M48.3125 26.8125C48.0125 27.1 48 27.2 48 28.5C48 29.8 48.0125 29.9 48.3125 30.1875C48.5 30.3875 48.7625 30.5 49 30.5C49.2375 30.5 49.5 30.3875 49.6875 30.1875C49.9875 29.9 50 29.8 50 28.5C50 27.2 49.9875 27.1 49.6875 26.8125C49.5 26.6125 49.2375 26.5 49 26.5C48.7625 26.5 48.5 26.6125 48.3125 26.8125Z" fill="#2D8ACA"/>
<path d="M52.3125 26.8125C52.0125 27.1 52 27.2 52 28.5C52 29.8 52.0125 29.9 52.3125 30.1875C52.5 30.3875 52.7625 30.5 53 30.5C53.2375 30.5 53.5 30.3875 53.6875 30.1875C53.9875 29.9 54 29.8 54 28.5C54 27.2 53.9875 27.1 53.6875 26.8125C53.5 26.6125 53.2375 26.5 53 26.5C52.7625 26.5 52.5 26.6125 52.3125 26.8125Z" fill="#2D8ACA"/>
<path d="M56.3125 26.8125C56.0125 27.1 56 27.2 56 28.5C56 29.8 56.0125 29.9 56.3125 30.1875C56.5 30.3875 56.7625 30.5 57 30.5C57.2375 30.5 57.5 30.3875 57.6875 30.1875C57.9875 29.9 58 29.8 58 28.5C58 27.2 57.9875 27.1 57.6875 26.8125C57.5 26.6125 57.2375 26.5 57 26.5C56.7625 26.5 56.5 26.6125 56.3125 26.8125Z" fill="#2D8ACA"/>
<path d="M30.3125 45.8125C30.1125 46 30 46.2625 30 46.5C30 46.7375 30.1125 47 30.3125 47.1875C30.6 47.4875 30.7 47.5 32 47.5C33.3 47.5 33.4 47.4875 33.6875 47.1875C33.8875 47 34 46.7375 34 46.5C34 46.2625 33.8875 46 33.6875 45.8125C33.4 45.5125 33.3 45.5 32 45.5C30.7 45.5 30.6 45.5125 30.3125 45.8125Z" fill="#2D8ACA"/>
</svg>
